PathFileType	4	(X/Y/Z)	/Users/mathieubourgeois/Desktop/Analyse/Traitement/Sujet_05/Data/Transformed_Sujet_05_velo_80.trc
DataRate	CameraRate	NumFrames	NumMarkers	Units	OrigDataRate	OrigDataStartFrame	OrigNumFrames
120.000000	120.000000	4	36	mm	120.000000	988	1976
Frame#	Time	RFHD			RANE			STRN			LANI			LKNE			T10			RHUM			RWRB			C7			LFWT			LTOE			RTOE			LWRA			LBWT			RBWT			RFWT			LKNI			RKNI			RKNE			LANE			RANI			LHEE			RHEE			LHUM			LRAD			RRAD			RWRA			LWRB			LFHD			LBHD			RBHD			RSHO			LSHO			CLAV			LCAR			RCAR			
		X1	Y1	Z1	X2	Y2	Z2	X3	Y3	Z3	X4	Y4	Z4	X5	Y5	Z5	X6	Y6	Z6	X7	Y7	Z7	X8	Y8	Z8	X9	Y9	Z9	X10	Y10	Z10	X11	Y11	Z11	X12	Y12	Z12	X13	Y13	Z13	X14	Y14	Z14	X15	Y15	Z15	X16	Y16	Z16	X17	Y17	Z17	X18	Y18	Z18	X19	Y19	Z19	X20	Y20	Z20	X21	Y21	Z21	X22	Y22	Z22	X23	Y23	Z23	X24	Y24	Z24	X25	Y25	Z25	X26	Y26	Z26	X27	Y27	Z27	X28	Y28	Z28	X29	Y29	Z29	X30	Y30	Z30	X31	Y31	Z31	X32	Y32	Z32	X33	Y33	Z33	X34	Y34	Z34	X35	Y35	Z35	X36	Y36	Z36	

989	8.233333333333333	124.9064331054687	1390.139038085938	121.6656417846679	-388.6584167480469	427.1528930664062	189.6275177001952	-201.1523284912109	1151.606689453125	26.26775169372549	-96.52257537841795	432.073974609375	-58.04968643188481	-80.08856964111327	820.9896850585938	-143.9188842773438	-341.0596618652344	1357.329345703125	41.84190750122058	23.72089004516599	1035.851318359375	198.1300811767578	241.0763854980468	891.6846923828125	247.3911590576172	-115.3016128540039	1424.374145507812	30.86419868469228	-369.8233947753906	1078.939453125	-80.54705047607433	57.24421691894533	341.5138854980469	-91.68611907958986	-293.1785888671875	249.9904479980469	155.2962188720703	272.1986694335938	932.7974853515625	-148.4205627441407	-543.5408935546875	1103.673217773438	-14.73768424987806	-533.7391967773438	1110.8212890625	122.6504974365233	-368.5042114257812	1069.904052734375	164.2681579589843	-69.00064086914062	789.5419311523438	-39.02946090698248	-144.8979187011719	687.68115234375	104.9283218383788	-140.5330963134766	728.0240478515625	211.3049774169921	-125.6242218017578	437.4934387207031	-138.1712493896485	-357.4348754882812	413.457275390625	109.1600341796874	-177.2368621826172	396.2574768066406	-94.79910278320318	-451.1098022460938	440.3534240722656	144.9606018066405	16.87610054016115	1045.80419921875	-149.2966766357422	66.39205169677737	1075.153564453125	-190.6702728271485	64.74004364013669	1068.484497070312	249.0937957763671	274.0732116699219	933.7791748046875	194.5292205810547	237.4161682128907	883.4312744140625	-182.1023559570313	145.4084777832031	1389.852661132812	-24.01198387146003	15.54057502746583	1467.579833984375	-48.45830917358408	-11.95287322998048	1491.333374023438	82.94844818115226	-29.82699203491213	1330.263793945312	176.5217742919921	-66.26060485839842	1334.978759765625	-125.4575805664063	-84.22163391113281	1278.4609375	31.26365089416495	314.1719360351562	926.384033203125	-226.1026000976563	319.0901184082031	929.6099853515625	283.5252685546875	
990	8.241666666666667	124.4513549804687	1389.7294921875	123.0353698730468	-387.2571411132812	440.2405700683594	189.6664276123046	-201.5051574707031	1151.539184570312	26.79855537414541	-95.86037445068358	419.5619812011719	-58.28527450561528	-84.77196502685545	809.4675903320312	-144.2232208251954	-341.4005432128906	1357.27392578125	41.69339370727526	23.48190307617185	1035.524536132812	198.2701568603515	241.0646362304687	891.6678466796875	247.3252410888672	-115.5274658203125	1424.174072265625	31.79623031616201	-369.2088928222656	1078.35498046875	-81.16826629638683	57.98496627807619	328.5416564941406	-91.78282928466798	-294.9237976074219	261.4467163085938	155.387954711914	272.2346496582031	932.6785278320312	-148.4340515136719	-543.382080078125	1103.098022460938	-15.8752946853639	-534.1261596679688	1110.448486328125	121.4401092529295	-368.8936157226562	1070.350952148438	163.5987396240233	-74.22211456298828	777.83251953125	-38.88422012329107	-138.4051513671875	695.5455932617188	106.2019271850585	-134.5777435302735	735.6990966796875	212.5968933105468	-125.0638656616211	424.83349609375	-138.3787841796876	-359.9369812011719	425.3959045410156	108.4172210693359	-177.261962890625	384.3238525390625	-95.66374206542974	-450.0007934570312	454.1339416503906	145.0353546142577	16.83502197265627	1045.561401367188	-149.1172790527344	66.39614105224612	1075.001831054688	-190.4039001464844	64.38185882568357	1068.100219726562	249.3643951416015	273.9762878417969	933.8449096679688	194.4760437011718	237.4625244140625	883.3709716796875	-182.1776275634766	145.2642517089844	1389.515380859375	-22.56340980529792	15.47147941589356	1467.348266601562	-47.23452758789072	-12.26189899444581	1491.041748046875	84.1272659301757	-30.58510780334475	1329.724243164062	177.5972442626952	-66.23643493652342	1334.728271484375	-124.7380447387696	-84.56516265869141	1278.229614257812	32.16528701782218	314.20068359375	926.3743286132812	-226.1647033691407	319.0686035156249	929.6224975585938	283.4541320800781	
991	8.25	124.1112289428711	1389.454223632812	124.4432067871093	-385.2778625488281	453.2936706542969	189.6611175537109	-201.9511871337891	1151.52294921875	27.42687225341787	-93.92515563964842	407.1157531738281	-58.52935791015629	-89.81662750244139	798.4081420898438	-143.7804870605469	-341.6023559570312	1357.265625	41.59630584716784	23.30523490905759	1035.3134765625	198.3937072753906	241.0699462890625	891.667236328125	247.2880706787109	-115.6299438476562	1424.09130859375	32.81418228149404	-368.5188293457031	1077.781616210938	-81.69298553466808	57.74866867065431	315.5129699707031	-91.80533599853517	-295.6105346679688	273.1501159667969	155.5204925537109	272.2748718261719	932.5762939453125	-148.4374084472657	-543.1080322265625	1102.587768554688	-17.04263496398939	-534.4058837890625	1110.19091796875	120.2157516479491	-369.1669616699219	1070.917724609375	163.0519409179686	-81.81329345703125	765.0621948242188	-38.82780456542974	-131.8013305664062	703.8281860351562	107.3985748291015	-128.6487579345703	743.6976928710938	213.8143768310546	-125.3476486206055	412.1549682617188	-138.5890655517579	-358.1900329589844	438.1389465332031	108.4324417114257	-177.8204650878906	372.0379333496094	-96.76584625244146	-447.7705993652344	468.2405700683594	144.7188720703124	16.85561752319338	1045.395874023438	-148.9061737060547	66.4179611206055	1074.927124023438	-190.1021118164063	64.04636383056638	1067.761962890625	249.6445922851562	273.8882141113281	933.8858642578125	194.4328308105468	237.4955596923828	883.3193359375	-182.2200927734375	145.2258148193359	1389.267944335938	-21.10037994384772	15.50404834747315	1467.210327148438	-45.99444961547861	-12.4822177886963	1491.180786132812	85.33723449707023	-31.23305892944338	1329.32666015625	178.656021118164	-66.17444610595702	1334.544677734375	-123.8818435668946	-84.71984100341797	1278.093994140625	33.05959701538077	314.2117309570312	926.3780517578125	-226.1825103759766	319.0471496582031	929.652099609375	283.3950805664062	
992	8.258333333333333	123.8815231323242	1389.256103515625	125.8919296264648	-382.6773071289062	466.1560974121094	189.644546508789	-202.1776123046875	1151.590698242188	28.00880241394033	-96.72391510009764	394.5643005371094	-58.89726257324222	-95.32335662841795	787.2597045898438	-143.5944824218751	-341.7173767089844	1357.307373046875	41.5489807128905	23.1688652038574	1035.150756835938	198.5317687988281	241.058364868164	891.6560668945312	247.2459869384765	-115.5557861328125	1424.065795898438	33.83742141723623	-367.9275512695312	1077.287353515625	-82.1764373779298	56.59241104125978	302.5745239257812	-91.90855407714845	-295.3365173339844	284.8797302246094	155.6432189941406	272.33837890625	932.50341796875	-148.4081268310547	-542.7384033203125	1102.184692382812	-18.20236015319838	-534.6095581054688	1110.026611328125	119.0058288574217	-369.4439392089844	1071.52978515625	162.4568481445311	-87.61533355712891	754.1531982421875	-39.73268127441412	-125.1922760009766	712.4143676757812	108.5496292114257	-122.7754135131836	752.060791015625	215.052032470703	-126.1628494262695	399.8386840820312	-138.5159912109376	-355.7376098632812	450.657470703125	108.4419860839843	-178.635986328125	359.9267883300781	-96.98151397705084	-445.0006103515625	481.861572265625	144.6136322021484	16.86319351196291	1045.167358398438	-148.4407501220704	66.51161956787112	1074.961303710938	-189.7610626220704	63.79385757446286	1067.476684570312	249.9378509521484	273.82373046875	933.9457397460938	194.4211883544922	237.5354766845703	883.2781982421875	-182.2235412597657	145.2648468017578	1389.1279296875	-19.63307189941413	15.65425682067872	1467.146118164062	-44.77456283569345	-12.61210250854493	1491.098388671875	86.54000854492179	-31.77575874328615	1329.040649414062	179.7074737548827	-65.96128845214842	1334.532104492188	-122.9732742309571	-84.80567169189453	1277.9873046875	34.03361892700187	314.2407531738281	926.3984375	-226.1937866210938	319.0302124023437	929.6718139648438	283.3532104492188	
